<svg xmlns="http://www.w3.org/2000/svg" id="prefix__Layer_2" width="115.893" height="33.433" data-name="Layer 2" viewBox="0 0 115.893 33.433">
    <defs>
        <style>
            .prefix__cls-1{fill:#e94435}
        </style>
    </defs>
    <g id="prefix__Layer_1" data-name="Layer 1">
        <path id="prefix__Path_19" d="M.38 5.2h3.376v18.583H.38z" data-name="Path 19" transform="translate(.208 2.852)"/>
        <path id="prefix__Path_20" d="M20.136 6.273A8.641 8.641 0 0 1 23.481 9.6a9.911 9.911 0 0 1 1.208 4.955 9.988 9.988 0 0 1-1.208 4.955 8.471 8.471 0 0 1-3.345 3.345A9.632 9.632 0 0 1 15.3 24.05a8.471 8.471 0 0 1-3.67-.774 7.588 7.588 0 0 1-2.818-2.23v9.6H5.44V5.266h3.236v2.942A7.046 7.046 0 0 1 11.51 5.87a9 9 0 0 1 3.79-.79 9.8 9.8 0 0 1 4.831 1.192zm-1.9 14.014a6.008 6.008 0 0 0 2.245-2.323 6.969 6.969 0 0 0 .821-3.407 7.03 7.03 0 0 0-.821-3.407 5.823 5.823 0 0 0-2.245-2.307 6.334 6.334 0 0 0-3.205-.79 6.194 6.194 0 0 0-3.175.836 5.915 5.915 0 0 0-2.245 2.261 6.767 6.767 0 0 0-.821 3.407 6.968 6.968 0 0 0 .805 3.407 5.7 5.7 0 0 0 2.245 2.323 6.643 6.643 0 0 0 6.4 0z" data-name="Path 20" transform="translate(2.984 2.786)"/>
        <path id="prefix__Path_21" d="M22.668 23.472a9.632 9.632 0 0 1-3.3-1.549l1.394-2.663a9.709 9.709 0 0 0 2.989 1.394 12.079 12.079 0 0 0 3.546.527c2.942 0 4.413-.836 4.413-2.524a1.626 1.626 0 0 0-.527-1.285 3.7 3.7 0 0 0-1.549-.712c-.588-.155-1.44-.325-2.54-.511a24.312 24.312 0 0 1-3.655-.867 5.7 5.7 0 0 1-2.431-1.549 4.243 4.243 0 0 1-1.022-3.1 4.77 4.77 0 0 1 2.114-4.04 9.4 9.4 0 0 1 5.652-1.549 15.269 15.269 0 0 1 3.717.465 9.942 9.942 0 0 1 3.1 1.223l-1.525 2.725a9.74 9.74 0 0 0-5.374-1.471 6.194 6.194 0 0 0-3.252.7 2.122 2.122 0 0 0-1.13 1.858 1.781 1.781 0 0 0 .635 1.44 4.011 4.011 0 0 0 1.549.774c.619.155 1.549.356 2.617.557a29.686 29.686 0 0 1 3.624.821 5.311 5.311 0 0 1 2.369 1.549 4.135 4.135 0 0 1 .976 2.942 4.646 4.646 0 0 1-2.158 4.009 10.189 10.189 0 0 1-5.869 1.549 15.764 15.764 0 0 1-4.367-.712z" data-name="Path 21" transform="translate(10.625 2.761)"/>
        <path id="prefix__Path_22" d="M50.369 5.266v18.583h-3.221v-2.958a7.356 7.356 0 0 1-2.848 2.354 8.7 8.7 0 0 1-3.778.805 9.694 9.694 0 0 1-4.847-1.192 8.471 8.471 0 0 1-3.345-3.345 9.988 9.988 0 0 1-1.208-4.955A9.911 9.911 0 0 1 32.329 9.6a8.641 8.641 0 0 1 3.345-3.329A9.864 9.864 0 0 1 40.52 5.08a9.074 9.074 0 0 1 3.686.759 7.123 7.123 0 0 1 2.8 2.214V5.266zm-6.38 15.021a5.792 5.792 0 0 0 2.245-2.323 6.968 6.968 0 0 0 .805-3.407 7.03 7.03 0 0 0-.805-3.407 5.621 5.621 0 0 0-2.245-2.292 6.7 6.7 0 0 0-6.4.015 5.714 5.714 0 0 0-2.245 2.276 6.86 6.86 0 0 0-.821 3.422 6.814 6.814 0 0 0 .821 3.407 5.9 5.9 0 0 0 2.25 2.322 6.586 6.586 0 0 0 6.4-.015z" data-name="Path 22" transform="translate(17.07 2.786)"/>
        <path id="prefix__Path_23" d="M56.531 24.142a4.955 4.955 0 0 1-1.812.976 7.743 7.743 0 0 1-2.245.325 5.946 5.946 0 0 1-4.351-1.549 5.807 5.807 0 0 1-1.549-4.32V2.54h3.376v4.119h5.327v2.788h-5.265v10.065a3.252 3.252 0 0 0 .759 2.323 2.756 2.756 0 0 0 2.152.805 4.057 4.057 0 0 0 2.633-.883z" data-name="Path 23" transform="translate(25.542 1.393)"/>
        <circle id="prefix__Ellipse_4" cx="2.276" cy="2.276" r="2.276" class="prefix__cls-1" data-name="Ellipse 4"/>
        <path id="prefix__Path_24" d="M62 20.441c-.588-.6-7.96-8.316-6.4-8.068s6.024 3.7 6.024 3.7 5.884-4.367 9.663-6.8a9.043 9.043 0 0 0-3.1-2.989 10.84 10.84 0 0 0-9.942 0A8.718 8.718 0 0 0 54.77 9.6a9.539 9.539 0 0 0-1.239 4.893 9.493 9.493 0 0 0 1.239 4.878 8.873 8.873 0 0 0 3.453 3.391 10.716 10.716 0 0 0 9.942 0 9.043 9.043 0 0 0 3.435-3.389 9.632 9.632 0 0 0 1.239-4.816 9.926 9.926 0 0 0-.7-3.763C68.505 14.557 62 20.441 62 20.441z" class="prefix__cls-1" data-name="Path 24" transform="translate(29.363 2.787)"/>
        <path id="prefix__Path_25" d="M74.2 5.933a9.291 9.291 0 0 1 4.181-.852v3.268a5.389 5.389 0 0 0-.774 0 5.714 5.714 0 0 0-4.3 1.626 6.457 6.457 0 0 0-1.549 4.646v9.291H68.38V5.267h3.236v3.1A5.668 5.668 0 0 1 74.2 5.933z" data-name="Path 25" transform="translate(37.509 2.785)"/>
    </g>
</svg>
